<svg xmlns="http://www.w3.org/2000/svg" xmlns:xlink="http://www.w3.org/1999/xlink" width="500" zoomAndPan="magnify" viewBox="0 0 375 374.999991" height="500" preserveAspectRatio="xMidYMid meet" version="1.0"><defs><g/><clipPath id="2ec911bc59"><path d="M 1.464844 2.078125 L 224.867188 2.078125 L 224.867188 163.78125 L 1.464844 163.78125 Z M 1.464844 2.078125 " clip-rule="nonzero"/></clipPath><clipPath id="04e3253aba"><path d="M 1 159 L 273 159 L 273 220.800781 L 1 220.800781 Z M 1 159 " clip-rule="nonzero"/></clipPath><clipPath id="8cd0314a4a"><rect x="0" width="272" y="0" height="62"/></clipPath><clipPath id="a203020551"><path d="M 242.789062 1.539062 L 272.726562 1.539062 L 272.726562 31.480469 L 242.789062 31.480469 Z M 242.789062 1.539062 " clip-rule="nonzero"/></clipPath><clipPath id="d51e564714"><path d="M 257.757812 1.539062 C 249.488281 1.539062 242.789062 8.242188 242.789062 16.511719 C 242.789062 24.777344 249.488281 31.480469 257.757812 31.480469 C 266.023438 31.480469 272.726562 24.777344 272.726562 16.511719 C 272.726562 8.242188 266.023438 1.539062 257.757812 1.539062 Z M 257.757812 1.539062 " clip-rule="nonzero"/></clipPath><clipPath id="4921df5b14"><path d="M 0.789062 0.539062 L 30.726562 0.539062 L 30.726562 30.480469 L 0.789062 30.480469 Z M 0.789062 0.539062 " clip-rule="nonzero"/></clipPath><clipPath id="961a5bccaf"><path d="M 15.757812 0.539062 C 7.488281 0.539062 0.789062 7.242188 0.789062 15.511719 C 0.789062 23.777344 7.488281 30.480469 15.757812 30.480469 C 24.023438 30.480469 30.726562 23.777344 30.726562 15.511719 C 30.726562 7.242188 24.023438 0.539062 15.757812 0.539062 Z M 15.757812 0.539062 " clip-rule="nonzero"/></clipPath><clipPath id="622236c454"><rect x="0" width="31" y="0" height="31"/></clipPath><clipPath id="6d3e986ab3"><path d="M 98.203125 119.984375 L 128.144531 119.984375 L 128.144531 149.925781 L 98.203125 149.925781 Z M 98.203125 119.984375 " clip-rule="nonzero"/></clipPath><clipPath id="29ca716fb4"><path d="M 113.171875 119.984375 C 104.90625 119.984375 98.203125 126.6875 98.203125 134.957031 C 98.203125 143.222656 104.90625 149.925781 113.171875 149.925781 C 121.441406 149.925781 128.144531 143.222656 128.144531 134.957031 C 128.144531 126.6875 121.441406 119.984375 113.171875 119.984375 Z M 113.171875 119.984375 " clip-rule="nonzero"/></clipPath><clipPath id="ba20b5b971"><path d="M 0.203125 0.984375 L 30.144531 0.984375 L 30.144531 30.925781 L 0.203125 30.925781 Z M 0.203125 0.984375 " clip-rule="nonzero"/></clipPath><clipPath id="f3d085d4af"><path d="M 15.171875 0.984375 C 6.90625 0.984375 0.203125 7.6875 0.203125 15.957031 C 0.203125 24.222656 6.90625 30.925781 15.171875 30.925781 C 23.441406 30.925781 30.144531 24.222656 30.144531 15.957031 C 30.144531 7.6875 23.441406 0.984375 15.171875 0.984375 Z M 15.171875 0.984375 " clip-rule="nonzero"/></clipPath><clipPath id="15b437b94d"><rect x="0" width="31" y="0" height="31"/></clipPath><clipPath id="475d4425e2"><rect x="0" width="275" y="0" height="221"/></clipPath></defs><g transform="matrix(1, 0, 0, 1, 49, 78)"><g clip-path="url(#475d4425e2)"><g clip-path="url(#2ec911bc59)"><path fill="#2bbcfc" d="M 41.789062 163.78125 C 28.417969 163.78125 15.050781 163.78125 1.515625 163.78125 C 38.816406 109.648438 75.949219 55.679688 113.25 1.546875 C 150.382812 55.679688 187.515625 109.648438 224.816406 163.78125 C 211.449219 163.78125 198.078125 163.78125 184.875 163.78125 L 113.414062 59.804688 Z M 41.789062 163.78125 " fill-opacity="1" fill-rule="nonzero"/></g><path stroke-linecap="butt" transform="matrix(0, -2.127652, 2.127652, 0, 240.729437, 163.780751)" fill="none" stroke-linejoin="miter" d="M -0.000234755 7.999691 L 52.460019 7.999691 " stroke="#2bbcfc" stroke-width="16" stroke-opacity="1" stroke-miterlimit="4"/><g clip-path="url(#04e3253aba)"><g transform="matrix(1, 0, 0, 1, 1, 159)"><g clip-path="url(#8cd0314a4a)"><g fill="#2bbcfc" fill-opacity="1"><g transform="translate(0.693079, 45.626522)"><g><path d="M 1.4375 -15.390625 C 1.4375 -18.421875 2.09375 -21.125 3.40625 -23.5 C 4.71875 -25.882812 6.546875 -27.738281 8.890625 -29.0625 C 11.242188 -30.382812 13.90625 -31.046875 16.875 -31.046875 C 20.519531 -31.046875 23.640625 -30.082031 26.234375 -28.15625 C 28.835938 -26.238281 30.570312 -23.617188 31.4375 -20.296875 L 23.21875 -20.296875 C 22.601562 -21.578125 21.734375 -22.550781 20.609375 -23.21875 C 19.492188 -23.894531 18.222656 -24.234375 16.796875 -24.234375 C 14.492188 -24.234375 12.625 -23.429688 11.1875 -21.828125 C 9.757812 -20.222656 9.046875 -18.078125 9.046875 -15.390625 C 9.046875 -12.710938 9.757812 -10.570312 11.1875 -8.96875 C 12.625 -7.363281 14.492188 -6.5625 16.796875 -6.5625 C 18.222656 -6.5625 19.492188 -6.894531 20.609375 -7.5625 C 21.734375 -8.238281 22.601562 -9.21875 23.21875 -10.5 L 31.4375 -10.5 C 30.570312 -7.175781 28.835938 -4.554688 26.234375 -2.640625 C 23.640625 -0.734375 20.519531 0.21875 16.875 0.21875 C 13.90625 0.21875 11.242188 -0.441406 8.890625 -1.765625 C 6.546875 -3.097656 4.71875 -4.941406 3.40625 -7.296875 C 2.09375 -9.660156 1.4375 -12.359375 1.4375 -15.390625 Z M 1.4375 -15.390625 "/></g></g></g><g fill="#2bbcfc" fill-opacity="1"><g transform="translate(34.015662, 45.626522)"><g><path d="M 21.828125 -5.421875 L 10.359375 -5.421875 L 8.53125 0 L 0.703125 0 L 11.8125 -30.703125 L 20.46875 -30.703125 L 31.578125 0 L 23.65625 0 Z M 19.90625 -11.203125 L 16.09375 -22.4375 L 12.328125 -11.203125 Z M 19.90625 -11.203125 "/></g></g></g><g fill="#2bbcfc" fill-opacity="1"><g transform="translate(66.244986, 45.626522)"><g><path d="M 18.375 0 L 11.984375 -11.59375 L 10.1875 -11.59375 L 10.1875 0 L 2.71875 0 L 2.71875 -30.703125 L 15.265625 -30.703125 C 17.679688 -30.703125 19.742188 -30.28125 21.453125 -29.4375 C 23.160156 -28.59375 24.4375 -27.429688 25.28125 -25.953125 C 26.125 -24.484375 26.546875 -22.84375 26.546875 -21.03125 C 26.546875 -18.988281 25.96875 -17.164062 24.8125 -15.5625 C 23.664062 -13.957031 21.96875 -12.820312 19.71875 -12.15625 L 26.8125 0 Z M 10.1875 -16.875 L 14.828125 -16.875 C 16.191406 -16.875 17.21875 -17.207031 17.90625 -17.875 C 18.59375 -18.550781 18.9375 -19.503906 18.9375 -20.734375 C 18.9375 -21.898438 18.59375 -22.816406 17.90625 -23.484375 C 17.21875 -24.148438 16.191406 -24.484375 14.828125 -24.484375 L 10.1875 -24.484375 Z M 10.1875 -16.875 "/></g></g></g><g fill="#2bbcfc" fill-opacity="1"><g transform="translate(94.757224, 45.626522)"><g><path d="M 10.1875 -24.703125 L 10.1875 -18.5 L 20.203125 -18.5 L 20.203125 -12.734375 L 10.1875 -12.734375 L 10.1875 -5.984375 L 21.515625 -5.984375 L 21.515625 0 L 2.71875 0 L 2.71875 -30.703125 L 21.515625 -30.703125 L 21.515625 -24.703125 Z M 10.1875 -24.703125 "/></g></g></g><g fill="#2bbcfc" fill-opacity="1"><g transform="translate(118.415385, 45.626522)"><g><path d="M 10.1875 -24.703125 L 10.1875 -18.5 L 20.203125 -18.5 L 20.203125 -12.734375 L 10.1875 -12.734375 L 10.1875 -5.984375 L 21.515625 -5.984375 L 21.515625 0 L 2.71875 0 L 2.71875 -30.703125 L 21.515625 -30.703125 L 21.515625 -24.703125 Z M 10.1875 -24.703125 "/></g></g></g><g fill="#2bbcfc" fill-opacity="1"><g transform="translate(142.073545, 45.626522)"><g><path d="M 18.375 0 L 11.984375 -11.59375 L 10.1875 -11.59375 L 10.1875 0 L 2.71875 0 L 2.71875 -30.703125 L 15.265625 -30.703125 C 17.679688 -30.703125 19.742188 -30.28125 21.453125 -29.4375 C 23.160156 -28.59375 24.4375 -27.429688 25.28125 -25.953125 C 26.125 -24.484375 26.546875 -22.84375 26.546875 -21.03125 C 26.546875 -18.988281 25.96875 -17.164062 24.8125 -15.5625 C 23.664062 -13.957031 21.96875 -12.820312 19.71875 -12.15625 L 26.8125 0 Z M 10.1875 -16.875 L 14.828125 -16.875 C 16.191406 -16.875 17.21875 -17.207031 17.90625 -17.875 C 18.59375 -18.550781 18.9375 -19.503906 18.9375 -20.734375 C 18.9375 -21.898438 18.59375 -22.816406 17.90625 -23.484375 C 17.21875 -24.148438 16.191406 -24.484375 14.828125 -24.484375 L 10.1875 -24.484375 Z M 10.1875 -16.875 "/></g></g></g><g fill="#2bbcfc" fill-opacity="1"><g transform="translate(170.585784, 45.626522)"><g/></g></g><g fill="#2bbcfc" fill-opacity="1"><g transform="translate(179.856631, 45.626522)"><g><path d="M 29.296875 -30.703125 L 29.296875 0 L 21.828125 0 L 21.828125 -12.640625 L 10.1875 -12.640625 L 10.1875 0 L 2.71875 0 L 2.71875 -30.703125 L 10.1875 -30.703125 L 10.1875 -18.671875 L 21.828125 -18.671875 L 21.828125 -30.703125 Z M 29.296875 -30.703125 "/></g></g></g><g fill="#2bbcfc" fill-opacity="1"><g transform="translate(211.823581, 45.626522)"><g><path d="M 10.0625 -30.703125 L 10.0625 -12.328125 C 10.0625 -10.492188 10.507812 -9.082031 11.40625 -8.09375 C 12.3125 -7.101562 13.640625 -6.609375 15.390625 -6.609375 C 17.140625 -6.609375 18.476562 -7.101562 19.40625 -8.09375 C 20.34375 -9.082031 20.8125 -10.492188 20.8125 -12.328125 L 20.8125 -30.703125 L 28.296875 -30.703125 L 28.296875 -12.375 C 28.296875 -9.632812 27.710938 -7.316406 26.546875 -5.421875 C 25.378906 -3.523438 23.8125 -2.09375 21.84375 -1.125 C 19.875 -0.164062 17.679688 0.3125 15.265625 0.3125 C 12.847656 0.3125 10.679688 -0.160156 8.765625 -1.109375 C 6.859375 -2.054688 5.347656 -3.484375 4.234375 -5.390625 C 3.128906 -7.304688 2.578125 -9.632812 2.578125 -12.375 L 2.578125 -30.703125 Z M 10.0625 -30.703125 "/></g></g></g><g fill="#2bbcfc" fill-opacity="1"><g transform="translate(242.653551, 45.626522)"><g><path d="M 21.296875 -15.75 C 23.078125 -15.363281 24.503906 -14.476562 25.578125 -13.09375 C 26.660156 -11.707031 27.203125 -10.128906 27.203125 -8.359375 C 27.203125 -5.785156 26.304688 -3.75 24.515625 -2.25 C 22.722656 -0.75 20.222656 0 17.015625 0 L 2.71875 0 L 2.71875 -30.703125 L 16.53125 -30.703125 C 19.65625 -30.703125 22.097656 -29.988281 23.859375 -28.5625 C 25.617188 -27.132812 26.5 -25.191406 26.5 -22.734375 C 26.5 -20.929688 26.023438 -19.429688 25.078125 -18.234375 C 24.128906 -17.035156 22.867188 -16.207031 21.296875 -15.75 Z M 10.1875 -18.28125 L 15.09375 -18.28125 C 16.3125 -18.28125 17.25 -18.550781 17.90625 -19.09375 C 18.5625 -19.632812 18.890625 -20.425781 18.890625 -21.46875 C 18.890625 -22.519531 18.5625 -23.320312 17.90625 -23.875 C 17.25 -24.425781 16.3125 -24.703125 15.09375 -24.703125 L 10.1875 -24.703125 Z M 15.703125 -6.03125 C 16.953125 -6.03125 17.921875 -6.3125 18.609375 -6.875 C 19.296875 -7.445312 19.640625 -8.273438 19.640625 -9.359375 C 19.640625 -10.441406 19.28125 -11.285156 18.5625 -11.890625 C 17.851562 -12.503906 16.867188 -12.8125 15.609375 -12.8125 L 10.1875 -12.8125 L 10.1875 -6.03125 Z M 15.703125 -6.03125 "/></g></g></g></g></g></g><g clip-path="url(#a203020551)"><g clip-path="url(#d51e564714)"><g transform="matrix(1, 0, 0, 1, 242, 1)"><g clip-path="url(#622236c454)"><g clip-path="url(#4921df5b14)"><g clip-path="url(#961a5bccaf)"><path fill="#020617" d="M 0.789062 0.539062 L 30.726562 0.539062 L 30.726562 30.480469 L 0.789062 30.480469 Z M 0.789062 0.539062 " fill-opacity="1" fill-rule="nonzero"/></g></g></g></g></g></g><g clip-path="url(#6d3e986ab3)"><g clip-path="url(#29ca716fb4)"><g transform="matrix(1, 0, 0, 1, 98, 119)"><g clip-path="url(#15b437b94d)"><g clip-path="url(#ba20b5b971)"><g clip-path="url(#f3d085d4af)"><path fill="#020617" d="M 0.203125 0.984375 L 30.144531 0.984375 L 30.144531 30.925781 L 0.203125 30.925781 Z M 0.203125 0.984375 " fill-opacity="1" fill-rule="nonzero"/></g></g></g></g></g></g></g></g></svg>