<svg xmlns="http://www.w3.org/2000/svg" xmlns:xlink="http://www.w3.org/1999/xlink" width="500" zoomAndPan="magnify" viewBox="0 0 375 374.999991" height="500" preserveAspectRatio="xMidYMid meet" version="1.0"><defs><g/><clipPath id="f369389376"><path d="M 1.464844 1.804688 L 225.625 1.804688 L 225.625 164.589844 L 1.464844 164.589844 Z M 1.464844 1.804688 " clip-rule="nonzero"/></clipPath><clipPath id="1df2b70180"><path d="M 241 35 L 275.71875 35 L 275.71875 182 L 241 182 Z M 241 35 " clip-rule="nonzero"/></clipPath><clipPath id="03a5de17c9"><path d="M 243.605469 1.796875 L 273.648438 1.796875 L 273.648438 31.839844 L 243.605469 31.839844 Z M 243.605469 1.796875 " clip-rule="nonzero"/></clipPath><clipPath id="47b7a311f2"><path d="M 258.628906 1.796875 C 250.332031 1.796875 243.605469 8.523438 243.605469 16.820312 C 243.605469 25.113281 250.332031 31.839844 258.628906 31.839844 C 266.921875 31.839844 273.648438 25.113281 273.648438 16.820312 C 273.648438 8.523438 266.921875 1.796875 258.628906 1.796875 Z M 258.628906 1.796875 " clip-rule="nonzero"/></clipPath><clipPath id="c370e9040b"><path d="M 0.605469 0.796875 L 30.648438 0.796875 L 30.648438 30.839844 L 0.605469 30.839844 Z M 0.605469 0.796875 " clip-rule="nonzero"/></clipPath><clipPath id="5f16d5fd93"><path d="M 15.628906 0.796875 C 7.332031 0.796875 0.605469 7.523438 0.605469 15.820312 C 0.605469 24.113281 7.332031 30.839844 15.628906 30.839844 C 23.921875 30.839844 30.648438 24.113281 30.648438 15.820312 C 30.648438 7.523438 23.921875 0.796875 15.628906 0.796875 Z M 15.628906 0.796875 " clip-rule="nonzero"/></clipPath><clipPath id="b392de8109"><rect x="0" width="31" y="0" height="31"/></clipPath><clipPath id="b165500758"><path d="M 98.53125 120.644531 L 128.574219 120.644531 L 128.574219 150.6875 L 98.53125 150.6875 Z M 98.53125 120.644531 " clip-rule="nonzero"/></clipPath><clipPath id="b9ade81f19"><path d="M 113.550781 120.644531 C 105.257812 120.644531 98.53125 127.371094 98.53125 135.667969 C 98.53125 143.960938 105.257812 150.6875 113.550781 150.6875 C 121.847656 150.6875 128.574219 143.960938 128.574219 135.667969 C 128.574219 127.371094 121.847656 120.644531 113.550781 120.644531 Z M 113.550781 120.644531 " clip-rule="nonzero"/></clipPath><clipPath id="41b7a67830"><path d="M 0.53125 0.644531 L 30.574219 0.644531 L 30.574219 30.6875 L 0.53125 30.6875 Z M 0.53125 0.644531 " clip-rule="nonzero"/></clipPath><clipPath id="a6e2de97d9"><path d="M 15.550781 0.644531 C 7.257812 0.644531 0.53125 7.371094 0.53125 15.667969 C 0.53125 23.960938 7.257812 30.6875 15.550781 30.6875 C 23.847656 30.6875 30.574219 23.960938 30.574219 15.667969 C 30.574219 7.371094 23.847656 0.644531 15.550781 0.644531 Z M 15.550781 0.644531 " clip-rule="nonzero"/></clipPath><clipPath id="a9cba5e245"><rect x="0" width="31" y="0" height="31"/></clipPath><clipPath id="b8d4972c7d"><rect x="0" width="276" y="0" height="222"/></clipPath></defs><g transform="matrix(1, 0, 0, 1, 49, 78)"><g clip-path="url(#b8d4972c7d)"><g clip-path="url(#f369389376)"><path fill="#020617" d="M 41.925781 164.589844 C 28.511719 164.589844 15.097656 164.589844 1.519531 164.589844 C 38.941406 110.273438 76.203125 56.121094 113.628906 1.804688 C 150.886719 56.121094 188.148438 110.273438 225.574219 164.589844 C 212.160156 164.589844 198.746094 164.589844 185.5 164.589844 L 113.792969 60.261719 Z M 41.925781 164.589844 " fill-opacity="1" fill-rule="nonzero"/></g><g clip-path="url(#1df2b70180)"><path stroke-linecap="butt" transform="matrix(0, -0.889532, 0.889532, 0, 241.72105, 164.590515)" fill="none" stroke-linejoin="miter" d="M 0.000754914 18.998809 L 125.900914 18.998809 " stroke="#020617" stroke-width="38" stroke-opacity="1" stroke-miterlimit="4"/></g><g fill="#020617" fill-opacity="1"><g transform="translate(1.693832, 205.57356)"><g><path d="M 1.453125 -15.4375 C 1.453125 -18.476562 2.109375 -21.191406 3.421875 -23.578125 C 4.734375 -25.960938 6.566406 -27.820312 8.921875 -29.15625 C 11.273438 -30.488281 13.945312 -31.15625 16.9375 -31.15625 C 20.59375 -31.15625 23.722656 -30.1875 26.328125 -28.25 C 28.929688 -26.320312 30.671875 -23.691406 31.546875 -20.359375 L 23.296875 -20.359375 C 22.679688 -21.640625 21.8125 -22.617188 20.6875 -23.296875 C 19.5625 -23.972656 18.28125 -24.3125 16.84375 -24.3125 C 14.53125 -24.3125 12.65625 -23.503906 11.21875 -21.890625 C 9.789062 -20.285156 9.078125 -18.132812 9.078125 -15.4375 C 9.078125 -12.75 9.789062 -10.597656 11.21875 -8.984375 C 12.65625 -7.378906 14.53125 -6.578125 16.84375 -6.578125 C 18.28125 -6.578125 19.5625 -6.910156 20.6875 -7.578125 C 21.8125 -8.253906 22.679688 -9.238281 23.296875 -10.53125 L 31.546875 -10.53125 C 30.671875 -7.195312 28.929688 -4.570312 26.328125 -2.65625 C 23.722656 -0.738281 20.59375 0.21875 16.9375 0.21875 C 13.945312 0.21875 11.273438 -0.441406 8.921875 -1.765625 C 6.566406 -3.097656 4.734375 -4.945312 3.421875 -7.3125 C 2.109375 -9.6875 1.453125 -12.394531 1.453125 -15.4375 Z M 1.453125 -15.4375 "/></g></g></g><g fill="#020617" fill-opacity="1"><g transform="translate(35.129548, 205.57356)"><g><path d="M 21.890625 -5.4375 L 10.390625 -5.4375 L 8.5625 0 L 0.703125 0 L 11.84375 -30.796875 L 20.53125 -30.796875 L 31.671875 0 L 23.734375 0 Z M 19.96875 -11.234375 L 16.140625 -22.515625 L 12.375 -11.234375 Z M 19.96875 -11.234375 "/></g></g></g><g fill="#020617" fill-opacity="1"><g transform="translate(67.468294, 205.57356)"><g><path d="M 18.421875 0 L 12.015625 -11.625 L 10.21875 -11.625 L 10.21875 0 L 2.71875 0 L 2.71875 -30.796875 L 15.3125 -30.796875 C 17.738281 -30.796875 19.804688 -30.367188 21.515625 -29.515625 C 23.234375 -28.671875 24.515625 -27.507812 25.359375 -26.03125 C 26.203125 -24.5625 26.625 -22.921875 26.625 -21.109375 C 26.625 -19.054688 26.046875 -17.222656 24.890625 -15.609375 C 23.742188 -14.003906 22.039062 -12.867188 19.78125 -12.203125 L 26.890625 0 Z M 10.21875 -16.9375 L 14.875 -16.9375 C 16.25 -16.9375 17.28125 -17.269531 17.96875 -17.9375 C 18.65625 -18.613281 19 -19.566406 19 -20.796875 C 19 -21.960938 18.65625 -22.878906 17.96875 -23.546875 C 17.28125 -24.222656 16.25 -24.5625 14.875 -24.5625 L 10.21875 -24.5625 Z M 10.21875 -16.9375 "/></g></g></g><g fill="#020617" fill-opacity="1"><g transform="translate(96.077335, 205.57356)"><g><path d="M 10.21875 -24.796875 L 10.21875 -18.5625 L 20.265625 -18.5625 L 20.265625 -12.765625 L 10.21875 -12.765625 L 10.21875 -6.015625 L 21.59375 -6.015625 L 21.59375 0 L 2.71875 0 L 2.71875 -30.796875 L 21.59375 -30.796875 L 21.59375 -24.796875 Z M 10.21875 -24.796875 "/></g></g></g><g fill="#020617" fill-opacity="1"><g transform="translate(119.815818, 205.57356)"><g><path d="M 10.21875 -24.796875 L 10.21875 -18.5625 L 20.265625 -18.5625 L 20.265625 -12.765625 L 10.21875 -12.765625 L 10.21875 -6.015625 L 21.59375 -6.015625 L 21.59375 0 L 2.71875 0 L 2.71875 -30.796875 L 21.59375 -30.796875 L 21.59375 -24.796875 Z M 10.21875 -24.796875 "/></g></g></g><g fill="#020617" fill-opacity="1"><g transform="translate(143.5543, 205.57356)"><g><path d="M 18.421875 0 L 12.015625 -11.625 L 10.21875 -11.625 L 10.21875 0 L 2.71875 0 L 2.71875 -30.796875 L 15.3125 -30.796875 C 17.738281 -30.796875 19.804688 -30.367188 21.515625 -29.515625 C 23.234375 -28.671875 24.515625 -27.507812 25.359375 -26.03125 C 26.203125 -24.5625 26.625 -22.921875 26.625 -21.109375 C 26.625 -19.054688 26.046875 -17.222656 24.890625 -15.609375 C 23.742188 -14.003906 22.039062 -12.867188 19.78125 -12.203125 L 26.890625 0 Z M 10.21875 -16.9375 L 14.875 -16.9375 C 16.25 -16.9375 17.28125 -17.269531 17.96875 -17.9375 C 18.65625 -18.613281 19 -19.566406 19 -20.796875 C 19 -21.960938 18.65625 -22.878906 17.96875 -23.546875 C 17.28125 -24.222656 16.25 -24.5625 14.875 -24.5625 L 10.21875 -24.5625 Z M 10.21875 -16.9375 "/></g></g></g><g fill="#020617" fill-opacity="1"><g transform="translate(172.163341, 205.57356)"><g/></g></g><g fill="#020617" fill-opacity="1"><g transform="translate(181.465663, 205.57356)"><g><path d="M 29.390625 -30.796875 L 29.390625 0 L 21.890625 0 L 21.890625 -12.6875 L 10.21875 -12.6875 L 10.21875 0 L 2.71875 0 L 2.71875 -30.796875 L 10.21875 -30.796875 L 10.21875 -18.734375 L 21.890625 -18.734375 L 21.890625 -30.796875 Z M 29.390625 -30.796875 "/></g></g></g><g fill="#020617" fill-opacity="1"><g transform="translate(213.541144, 205.57356)"><g><path d="M 10.09375 -30.796875 L 10.09375 -12.375 C 10.09375 -10.53125 10.546875 -9.109375 11.453125 -8.109375 C 12.359375 -7.117188 13.6875 -6.625 15.4375 -6.625 C 17.195312 -6.625 18.546875 -7.117188 19.484375 -8.109375 C 20.421875 -9.109375 20.890625 -10.53125 20.890625 -12.375 L 20.890625 -30.796875 L 28.390625 -30.796875 L 28.390625 -12.421875 C 28.390625 -9.671875 27.800781 -7.34375 26.625 -5.4375 C 25.457031 -3.539062 23.882812 -2.109375 21.90625 -1.140625 C 19.9375 -0.171875 17.738281 0.3125 15.3125 0.3125 C 12.882812 0.3125 10.710938 -0.160156 8.796875 -1.109375 C 6.878906 -2.066406 5.363281 -3.503906 4.25 -5.421875 C 3.144531 -7.335938 2.59375 -9.671875 2.59375 -12.421875 L 2.59375 -30.796875 Z M 10.09375 -30.796875 "/></g></g></g><g fill="#020617" fill-opacity="1"><g transform="translate(244.475786, 205.57356)"><g><path d="M 21.359375 -15.796875 C 23.148438 -15.410156 24.585938 -14.523438 25.671875 -13.140625 C 26.753906 -11.753906 27.296875 -10.164062 27.296875 -8.375 C 27.296875 -5.800781 26.394531 -3.757812 24.59375 -2.25 C 22.789062 -0.75 20.28125 0 17.0625 0 L 2.71875 0 L 2.71875 -30.796875 L 16.578125 -30.796875 C 19.710938 -30.796875 22.164062 -30.078125 23.9375 -28.640625 C 25.707031 -27.210938 26.59375 -25.269531 26.59375 -22.8125 C 26.59375 -21 26.113281 -19.492188 25.15625 -18.296875 C 24.207031 -17.097656 22.941406 -16.265625 21.359375 -15.796875 Z M 10.21875 -18.34375 L 15.140625 -18.34375 C 16.367188 -18.34375 17.3125 -18.613281 17.96875 -19.15625 C 18.625 -19.695312 18.953125 -20.492188 18.953125 -21.546875 C 18.953125 -22.597656 18.625 -23.398438 17.96875 -23.953125 C 17.3125 -24.515625 16.367188 -24.796875 15.140625 -24.796875 L 10.21875 -24.796875 Z M 15.75 -6.0625 C 17.007812 -6.0625 17.984375 -6.34375 18.671875 -6.90625 C 19.359375 -7.476562 19.703125 -8.304688 19.703125 -9.390625 C 19.703125 -10.472656 19.34375 -11.320312 18.625 -11.9375 C 17.90625 -12.550781 16.914062 -12.859375 15.65625 -12.859375 L 10.21875 -12.859375 L 10.21875 -6.0625 Z M 15.75 -6.0625 "/></g></g></g><g clip-path="url(#03a5de17c9)"><g clip-path="url(#47b7a311f2)"><g transform="matrix(1, 0, 0, 1, 243, 1)"><g clip-path="url(#b392de8109)"><g clip-path="url(#c370e9040b)"><g clip-path="url(#5f16d5fd93)"><path fill="#2bbcfc" d="M 0.605469 0.796875 L 30.648438 0.796875 L 30.648438 30.839844 L 0.605469 30.839844 Z M 0.605469 0.796875 " fill-opacity="1" fill-rule="nonzero"/></g></g></g></g></g></g><g clip-path="url(#b165500758)"><g clip-path="url(#b9ade81f19)"><g transform="matrix(1, 0, 0, 1, 98, 120)"><g clip-path="url(#a9cba5e245)"><g clip-path="url(#41b7a67830)"><g clip-path="url(#a6e2de97d9)"><path fill="#2bbcfc" d="M 0.53125 0.644531 L 30.574219 0.644531 L 30.574219 30.6875 L 0.53125 30.6875 Z M 0.53125 0.644531 " fill-opacity="1" fill-rule="nonzero"/></g></g></g></g></g></g></g></g></svg>